<?xml version="1.0" standalone="no"?>
<!DOCTYPE svg PUBLIC "-//W3C//DTD SVG 20010904//EN"
 "http://www.w3.org/TR/2001/REC-SVG-20010904/DTD/svg10.dtd">
<svg version="1.0" xmlns="http://www.w3.org/2000/svg"
 width="234.000000pt" height="234.000000pt" viewBox="0 0 234.000000 234.000000"
 preserveAspectRatio="xMidYMid meet">
<metadata>
Created by potrace 1.11, written by Peter Selinger 2001-2013
</metadata>
<g transform="translate(0.000000,234.000000) scale(0.100000,-0.100000)"
fill="#000000" stroke="none">
<path d="M435 2291 c-200 -43 -330 -166 -381 -361 -16 -58 -18 -137 -21 -730
-3 -699 0 -752 43 -860 54 -138 184 -251 329 -286 82 -19 213 -23 805 -20 732
3 718 2 839 66 126 67 219 200 246 351 19 110 20 1300 1 1419 -30 185 -111
301 -261 376 -123 61 -167 64 -885 63 -560 -1 -644 -3 -715 -18z"/>
</g>
</svg>
